<svg width="724" height="726" viewBox="0 0 724 726" fill="none" xmlns="http://www.w3.org/2000/svg">
<rect width="724" height="726" />
<path d="M344 415H495.121C495.121 415 515.829 394.886 513.869 378.622C512.104 363.972 492.28 349 492.28 349H344L359.907 361.992L365.589 378.622L359.907 398.37L344 415Z" fill="#F34053"/>
<path d="M541.69 415H328L348.791 426.256L359.187 459L348.791 491.233L328 503H544L541.69 415Z" fill="#00B7A1"/>
<path d="M74.1005 441.873C85.9082 488.477 113.101 557.373 113.101 557.373L87 536L59.5 513C59.5 513 54.5 512 37.5 494C27.4939 483.405 25.5 477 22.6005 468.5C21.3085 464.712 18.8999 450.382 22.6005 441.873C25.3439 435.565 27.356 431.824 32.6005 427.373C39.9919 421.1 46.7315 416.882 56.1005 419.373C61.5436 420.82 64.4704 423.067 68.1005 427.373C72.0503 432.059 74.1005 441.873 74.1005 441.873Z" fill="#0C987D"/>
<path d="M139 551C142.952 484.69 159.6 419.873 170.6 404.873C181.6 389.873 194.6 393.373 205.1 397.873C215.6 402.373 219.321 411.294 221.6 422.873C224.129 435.722 212.6 452.873 212.6 452.873C179.374 492.762 169.588 504.214 139 551Z" fill="#0C987D"/>
<path d="M360.647 495.51L179 497C179 497 201.19 485.076 201.19 457.255C201.19 429.433 181.064 419 181.064 419H355.487L372 435.395V473.65L360.647 495.51Z" fill="#FFE9D1" stroke="#FFE9D1"/>
<path d="M124.5 542.5C124.5 542.5 112.671 512.344 104 489C97.0317 470.24 91.1005 448.588 87 429C82.2545 406.332 79 378.5 79 378.5C79 378.5 77.2944 347.636 82.043 327.43C86.2573 309.497 100.543 285.43 100.543 285.43C100.543 285.43 130.543 235.732 164.043 252.43C205.543 273.115 178.043 327.43 178.043 327.43C178.043 327.43 160.549 360.923 153.543 383.93C148.422 400.746 149.423 397.43 142.043 434.43C134.663 471.43 131.725 496.223 124.5 542.5Z" fill="#007E69"/>
<path d="M180.043 416.93C180.043 416.93 319.98 416.93 343.437 416.93C366.894 416.93 371.394 436.07 371.394 452.07C371.394 468.07 374.894 499.43 343.437 499.43C311.98 499.43 178.043 499.43 178.043 499.43M124.5 542.5C124.5 542.5 112.671 512.344 104 489C97.0317 470.24 91.1005 448.588 87 429C82.2545 406.332 79 378.5 79 378.5C79 378.5 77.2944 347.636 82.043 327.43C86.2573 309.497 100.543 285.43 100.543 285.43C100.543 285.43 130.543 235.732 164.043 252.43C205.543 273.115 178.043 327.43 178.043 327.43C178.043 327.43 160.549 360.923 153.543 383.93C148.422 400.746 149.423 397.43 142.043 434.43C134.663 471.43 131.725 496.223 124.5 542.5Z" stroke="#007E69" stroke-width="8"/>
<path d="M169.147 544H65.3153C65.3153 544 36.5008 561.746 36.0039 612.958C35.5071 664.169 82.2067 688 82.2067 688H154.74C154.74 688 192 650.986 192 612.958C192 565.296 169.147 544 169.147 544Z" fill="#915CF2"/>
<path d="M158.101 610.373C153.472 600.753 140.601 588.873 140.601 588.873L328.601 591.873L350.601 610.373L360.601 639.873L350.601 672.873L328.601 684.873H140.601C140.601 684.873 152.993 671.72 157.601 661.373C161.686 652.201 163.513 646.413 163.601 636.373C163.692 625.953 162.683 619.897 158.101 610.373Z" fill="#FEEAD2"/>
<path d="M174.1 523.118C170.398 515.402 160.101 505.873 160.101 505.873L310.501 508.279L328.101 523.118L336.101 546.779L328.101 573.248L310.501 582.873H160.101C160.101 582.873 170.014 572.323 173.701 564.024C176.968 556.668 178.43 552.025 178.501 543.972C178.573 535.614 177.766 530.757 174.1 523.118Z" fill="#FEEAD2"/>
<path d="M327 690C393.525 689.313 547.608 690 558.895 690C570.182 690 576.852 684.85 580.443 680.215C584.034 675.58 588.139 666.31 589.678 656.525C591.334 645.996 591.544 635.603 589.678 625.11C587.113 610.69 584.034 608.115 580.443 601.935C575.364 593.195 565.052 587 558.895 587H327L351.626 608.115L362.4 639.015L353.702 671.134L327 690Z" fill="#917BB7"/>
<path d="M140.601 589.873H324.601C324.601 589.873 339.112 593.798 346.101 599.873C351.908 604.922 354.42 608.866 357.601 615.873C361.068 623.51 362.281 628.488 362.101 636.873C361.937 644.497 362.323 651.25 359.601 658.373C356.384 666.789 352.781 669.828 346.101 675.873C339.295 682.033 324.601 685.373 324.601 685.373H140" stroke="#4E1CAC" stroke-width="8"/>
<path d="M489.101 503H307.5L310.101 506.873L322.101 513.373L331.601 527.873L336.101 551.873L327.101 573.873L302 587C302 587 455.101 586.873 489.101 586.873C494.601 586.873 503.212 580.189 508.101 571.373C513.524 561.593 516.898 552.147 516 541C515.345 532.872 512.41 525.422 508.101 518.5C503.198 510.625 489.101 503 489.101 503Z" fill="#F04254"/>
<path d="M160 506C160 506 291.988 506 304.938 506C317.888 506 324.662 513.497 327.849 516.996C331.036 520.495 335.32 530.991 335.818 540.987C336.316 550.984 336.384 562.578 327.849 571.976C321.511 578.955 312.907 583.909 304.938 583.972C296.969 584.035 160 583.972 160 583.972" stroke="#C62131" stroke-width="6"/>
<path d="M214.601 545.373H276.601" stroke="#D9C3AB"/>
<path d="M262.601 545.873H227.101V606.873L245.601 586.873L262.601 606.873V545.873Z" fill="#F34053"/>
<line x1="35.9868" y1="697" x2="720.086" y2="695.873" stroke="#1F0353" stroke-width="16"/>
<path d="M363.882 408.892L234 410C234 410 249.866 401.134 249.866 380.446C249.866 359.758 235.476 352 235.476 352H360.193L372 364.191V392.637L363.882 408.892Z" fill="#FFE9D1"/>
<line x1="273" y1="381.5" x2="335" y2="381.5" stroke="#CEBFA8"/>
<path d="M234 350H353C364 353 368.847 357.875 370.5 360C374 364.5 376.444 372.033 376.5 380C376.557 388.154 375.499 393.558 370.5 400C365.818 406.034 365 407.5 353 410.5H234" stroke="#EB3146" stroke-width="6"/>
<path d="M493.651 518.345L472.36 505.728L462.389 531.71C462.389 531.71 463.711 536.575 465.417 539.916C467.3 543.605 472.662 547.662 472.662 547.662L493.651 518.345Z" fill="#C98382"/>
<path d="M566.5 545L542 548.5L550.5 575C550.5 575 554.578 577.964 558 579.5C561.779 581.196 568.5 581 568.5 581L566.5 545Z" fill="#C98382"/>
<path d="M532 616.5C538.072 598.651 542.017 589.118 550 573C550 573 555.879 576.412 559.5 578C563.013 579.541 569 580.5 569 580.5C569 580.5 570.11 594.919 571 603.5C571.872 611.908 573.5 624 573.5 624C573.5 624 580 630 583.5 635C584.2 636 583.5 642 583.5 642L554 626.5L548.5 598.5L536.5 618.5L532 616.5Z" fill="#290F56"/>
<path d="M426.101 558.29C439.917 545.46 447.914 538.941 462.589 528.542C462.589 528.542 466.145 534.335 468.578 537.452C470.939 540.475 475.754 544.161 475.754 544.161C475.754 544.161 469.888 557.379 466.599 565.355C463.377 573.169 459.071 584.586 459.071 584.586C459.071 584.586 461.945 592.952 462.653 599.014C462.795 600.226 459.331 605.175 459.331 605.175L440.721 577.532L449.167 550.276L429.113 562.186L426.101 558.29Z" fill="#290F56"/>
<path d="M466.5 344L419 299C419 299 459 311.5 485 317C508.379 321.946 529 328.5 544 337C557.217 344.49 564.69 351.294 568.5 366C572.793 382.57 560 409 560 409L496.5 532.5C496.5 532.5 483.168 529.913 475.5 525.5C468.73 521.605 459 514 459 514L506 381.5L466.5 344Z" fill="#290F58"/>
<path d="M322 382H288V441L305.5 424.5L322 441V382Z" fill="#00B7A1"/>
<path d="M361.642 361.5C347.538 352.881 339.267 346.838 335.142 328.5C332.742 317.832 334.388 306.439 337.642 296C340.711 286.151 352.264 274 352.264 274C381 284 398.98 286.338 429.142 288.5C429.142 288.5 428.142 295 435.142 303C442.142 311 535.305 350 546.142 363C556.978 376 560.87 374.146 566.142 425.5L579.642 557C570.142 564.5 538.142 563 538.142 563L498.142 403.5C498.142 403.5 370.642 367 361.642 361.5Z" fill="#5C22CE"/>
<path d="M407 138C396.5 139 380.5 147.5 376.5 152L364 257.5L394 274.5H427C425.5 247.5 431.568 230.905 441 207C447.989 189.288 445.245 166.582 433 152C429.891 148.298 422.5 141.5 422.5 141.5C422.5 141.5 420.405 148.115 418 149.5C414.949 151.256 412.972 152.306 409.5 151C406.13 149.732 404.537 147.56 404 144C403.668 141.799 407 138 407 138Z" fill="#00B6A0"/>
<path d="M456.785 118.5C457.785 110.5 457.285 98.5 457.285 98.5C457.285 98.5 447.252 98.6716 441.785 97.5C436.318 96.3284 429.285 93 429.285 93L418.285 100.5C418.285 100.5 416.864 98.0032 415.285 97.5C413.343 96.8808 411.785 97.5 410.285 99C408.785 100.5 407.285 103 406.785 105.5C406.285 108 406.382 109.876 407.785 112C409.229 114.186 413.285 113.5 413.285 113.5L415.785 123L404.785 140C403.285 143.5 403.753 149.702 407.785 152C411.285 153.995 416.285 154 419.285 150L426.785 137C426.785 137 433.174 138.253 437.285 138C442.96 137.65 446.981 137.226 450.785 133C455.285 128 456.002 124.76 456.785 118.5Z" fill="#C98382"/>
<path d="M350.085 273.439C342.585 268.939 336.705 258.053 342.085 239.939C342.085 239.939 348.943 211.533 355.585 194.439C362.233 177.326 375.585 152.939 375.585 152.939C381.472 147.359 391.085 151.439 391.085 151.439C391.405 151.633 402.085 158.439 398.585 168.439C395.085 178.439 368.085 242.439 368.085 242.439C366.618 244.36 366.809 256.57 372.585 258.939C372.585 258.939 400.585 269.939 427.585 273.439C457.587 277.328 504.585 283.939 504.585 283.939C501.96 288.201 500.052 290.318 495.585 293.439C490.882 294.471 488.173 294.638 483.085 293.439C477.921 291.956 478.074 291.414 473.585 291.439C473.585 291.439 436.585 290.439 410.585 287.439C384.585 284.439 357.585 277.939 350.085 273.439Z" fill="#C98382"/>
<path d="M491.585 231.939L481.085 257.439C481.085 257.439 459.085 255.439 450.085 246.939C441.342 238.682 436.5 218.5 436.5 218.5C436.5 218.5 440.5 208.5 442.5 201C444.5 193.5 444.5 185.5 444.5 185.5C444.5 185.5 464.585 231.439 473.585 233.439C482.585 235.439 491.585 231.939 491.585 231.939Z" fill="#C98382"/>
<path d="M410.464 50.0981C418.464 50.5981 426 58 426 58C440 55 449.5 66.5 449.5 66.5C449.5 66.5 463.883 76.3769 466.982 86.5C466.982 86.5 468 93.5981 466 98H464V90.5L462 99H459.5L461 90.5L457.5 99C457.5 99 446.5 99 438.5 96.5C430.5 94 429.5 93 429.5 93C425 95.5 418 101 418 101C418 101 416.196 95.9018 412 98C410 99 407 103.5 407 105.5C407 106.145 406 109 408.5 111.5C410.589 113.589 414.5 113 414.5 113L415.964 122.098L406 139C391.296 141.107 379.595 146.621 371.5 160.5L353 202C353 202 340.149 201.823 331.964 196.598C317.835 185.192 313.448 176.678 315.464 155.598C319.662 137.067 324.933 130.414 339.464 125.098C339.464 125.098 358.964 122.598 368.464 111.598C377.964 100.598 375.964 89.5981 378.964 80.0981C381.964 70.5981 382.964 68.5981 382.964 68.5981C386 62.5 385.464 63.5981 388.464 60.0981C391.464 56.5981 394.464 54.0981 396.964 52.5981C399.464 51.0981 402.464 49.5981 410.464 50.0981Z" fill="#120030"/>
<path d="M406.066 67C406.566 63 410.066 60.5 410.066 60.5C410.066 60.5 413.41 58 416.066 58C420.722 58 421.566 60 421.566 60C421.566 60 416.079 62.8773 413.566 65.5C410.831 68.355 408.066 74 408.066 74C408.066 74 405.566 71 406.066 67Z" fill="#04B89F"/>
<line x1="419.32" y1="276.017" x2="475.32" y2="282.017" stroke="#3B0C93" stroke-width="6"/>
<path d="M473 285C473.5 283.2 474.5 279.48 474.5 279H584L582.5 285H473Z" fill="#5D21CE"/>
<path d="M474 279.5L500.5 197.5H613L584.5 279.5H474Z" fill="#7F4CE0"/>
<ellipse cx="546.395" cy="240.935" rx="8.29856" ry="11.5" transform="rotate(25.116 546.395 240.935)" fill="#9F6FFB"/>
</svg>
